C:\Users\u0150099\Documents\master_thesis\3dpredictsim\Polynomials\CP3_T0_scaled_MRI_v7_scaledMT\dummy_motion.mot
nRows=14
nColumns=32

name C:\Users\u0150099\Documents\master_thesis\3dpredictsim\Polynomials\CP3_T0_scaled_MRI_v7_scaledMT\dummy_motion.mot
datacolumns 32
datarows 14
range 37.5100000000 37.6400000000
endheader
time	pelvis_tilt	pelvis_list	pelvis_rotation	pelvis_tx	pelvis_ty	pelvis_tz	hip_flexion_r	hip_adduction_r	hip_rotation_r	knee_angle_r	ankle_angle_r	subtalar_angle_r	mtp_angle_r	hip_flexion_l	hip_adduction_l	hip_rotation_l	knee_angle_l	ankle_angle_l	subtalar_angle_l	mtp_angle_l	lumbar_extension	lumbar_bending	lumbar_rotation	arm_flex_r	arm_add_r	arm_rot_r	elbow_flex_r	arm_flex_l	arm_add_l	arm_rot_l	elbow_flex_l
       37.5100000000	        0.0000000000	        0.0000000000	        0.0000000000	        0.0000000000	        0.0000000000	        0.0000000000	       -4.2075570030	       -6.8460121372	       11.2575141409	      -34.7531802064	       -8.4929423369	       14.4341030681	       24.8659921339	        0.0000000000	        0.0000000000	        0.0000000000	        0.0000000000	        0.0000000000	        0.0000000000	        0.0000000000	        5.6037979740	      -11.6863860228	      -14.1979264466	        0.0000000000	        0.0000000000	        0.0000000000	        0.0000000000	        0.0000000000	        0.0000000000	        0.0000000000	        0.0000000000	
       37.5200000000	        0.0000000000	        0.0000000000	        0.0000000000	        0.0000000000	        0.0000000000	        0.0000000000	       43.3299822285	       16.9842240525	        1.7120776767	      -41.9202343373	       16.0162013777	      -18.1563477834	       39.1862816227	        0.0000000000	        0.0000000000	        0.0000000000	        0.0000000000	        0.0000000000	        0.0000000000	        0.0000000000	       24.0710980811	      -19.0625804120	        5.4845744230	        0.0000000000	        0.0000000000	        0.0000000000	        0.0000000000	        0.0000000000	        0.0000000000	        0.0000000000	        0.0000000000	
       37.5300000000	        0.0000000000	        0.0000000000	        0.0000000000	        0.0000000000	        0.0000000000	        0.0000000000	       10.2841844846	       20.5945383767	        7.3629479518	      -76.4371393980	        7.1076195560	       23.1384174115	        4.7812568250	        0.0000000000	        0.0000000000	        0.0000000000	        0.0000000000	        0.0000000000	        0.0000000000	        0.0000000000	       -6.3093809172	       13.1124085196	       21.4220191707	        0.0000000000	        0.0000000000	        0.0000000000	        0.0000000000	        0.0000000000	        0.0000000000	        0.0000000000	        0.0000000000	
       37.5400000000	        0.0000000000	        0.0000000000	        0.0000000000	        0.0000000000	        0.0000000000	        0.0000000000	      -36.8312321827	       17.5069697860	       19.8881070265	      -16.7257068933	       -3.8639039650	       11.1596607337	       -2.3775395184	        0.0000000000	        0.0000000000	        0.0000000000	        0.0000000000	        0.0000000000	        0.0000000000	        0.0000000000	      -26.4688905321	       -2.7648055186	       20.8013930831	        0.0000000000	        0.0000000000	        0.0000000000	        0.0000000000	        0.0000000000	        0.0000000000	        0.0000000000	        0.0000000000	
       37.5500000000	        0.0000000000	        0.0000000000	        0.0000000000	        0.0000000000	        0.0000000000	        0.0000000000	      -41.8808053838	       -2.8461232720	       12.2856433032	      -55.2255704163	      -11.8827884447	       -1.6441109442	        5.6732032891	        0.0000000000	        0.0000000000	        0.0000000000	        0.0000000000	        0.0000000000	        0.0000000000	        0.0000000000	      -11.4317141614	      -14.3568781866	       13.8019110087	        0.0000000000	        0.0000000000	        0.0000000000	        0.0000000000	        0.0000000000	        0.0000000000	        0.0000000000	        0.0000000000	
       37.5600000000	        0.0000000000	        0.0000000000	        0.0000000000	        0.0000000000	        0.0000000000	        0.0000000000	      -21.4479066645	       20.5689615757	        4.1622792528	      -33.7526761826	        1.0509791380	       26.9780863900	       11.3907934061	        0.0000000000	        0.0000000000	        0.0000000000	        0.0000000000	        0.0000000000	        0.0000000000	        0.0000000000	      -23.9122381609	        5.0350458243	       22.0401379447	        0.0000000000	        0.0000000000	        0.0000000000	        0.0000000000	        0.0000000000	        0.0000000000	        0.0000000000	        0.0000000000	
       37.5700000000	        0.0000000000	        0.0000000000	        0.0000000000	        0.0000000000	        0.0000000000	        0.0000000000	      -21.6232656913	       -8.4941241389	        2.5455295664	      -56.8754040547	       22.6556697697	       -6.7834183413	       49.8404880545	        0.0000000000	        0.0000000000	        0.0000000000	        0.0000000000	        0.0000000000	        0.0000000000	        0.0000000000	      -18.4317086759	        5.8347608060	        5.5799211359	        0.0000000000	        0.0000000000	        0.0000000000	        0.0000000000	        0.0000000000	        0.0000000000	        0.0000000000	        0.0000000000	
       37.5800000000	        0.0000000000	        0.0000000000	        0.0000000000	        0.0000000000	        0.0000000000	        0.0000000000	        7.4159707426	      -18.2225538300	        3.3683317455	      -33.2340474110	        9.8429051540	       14.5318484088	       46.3305001774	        0.0000000000	        0.0000000000	        0.0000000000	        0.0000000000	        0.0000000000	        0.0000000000	        0.0000000000	       -8.4068617653	       -0.6027934745	       27.6168502331	        0.0000000000	        0.0000000000	        0.0000000000	        0.0000000000	        0.0000000000	        0.0000000000	        0.0000000000	        0.0000000000	
       37.5900000000	        0.0000000000	        0.0000000000	        0.0000000000	        0.0000000000	        0.0000000000	        0.0000000000	      -20.8695043563	      -10.6046334821	      -15.8146688994	       -8.7803253993	       14.5239322307	       -8.9288719982	       48.6413177947	        0.0000000000	        0.0000000000	        0.0000000000	        0.0000000000	        0.0000000000	        0.0000000000	        0.0000000000	       -0.1180481017	       10.8501338236	       28.4774812266	        0.0000000000	        0.0000000000	        0.0000000000	        0.0000000000	        0.0000000000	        0.0000000000	        0.0000000000	        0.0000000000	
       37.6000000000	        0.0000000000	        0.0000000000	        0.0000000000	        0.0000000000	        0.0000000000	        0.0000000000	       12.1823039923	       22.6967868128	       28.1104260720	       -5.1858762999	        4.8887604495	      -11.7761947227	       23.5627742017	        0.0000000000	        0.0000000000	        0.0000000000	        0.0000000000	        0.0000000000	        0.0000000000	        0.0000000000	      -11.7982361742	       22.0122433367	       -9.4107869024	        0.0000000000	        0.0000000000	        0.0000000000	        0.0000000000	        0.0000000000	        0.0000000000	        0.0000000000	        0.0000000000	
       37.6100000000	        0.0000000000	        0.0000000000	        0.0000000000	        0.0000000000	        0.0000000000	        0.0000000000	      -26.4784446185	       -0.0695946321	      -11.2120182031	      -58.2772157280	       27.8110689736	      -24.6824345541	       14.2278010545	        0.0000000000	        0.0000000000	        0.0000000000	        0.0000000000	        0.0000000000	        0.0000000000	        0.0000000000	       16.0033694046	      -19.9186070584	       27.3595251890	        0.0000000000	        0.0000000000	        0.0000000000	        0.0000000000	        0.0000000000	        0.0000000000	        0.0000000000	        0.0000000000	
       37.6200000000	        0.0000000000	        0.0000000000	        0.0000000000	        0.0000000000	        0.0000000000	        0.0000000000	       21.6338482247	       23.6116574093	      -26.4606474683	      -19.9166787135	      -11.5277054445	       26.6925714516	      -14.9964243657	        0.0000000000	        0.0000000000	        0.0000000000	        0.0000000000	        0.0000000000	        0.0000000000	        0.0000000000	       18.3860311396	       17.7631813566	       21.1456664492	        0.0000000000	        0.0000000000	        0.0000000000	        0.0000000000	        0.0000000000	        0.0000000000	        0.0000000000	        0.0000000000	
       37.6300000000	        0.0000000000	        0.0000000000	        0.0000000000	        0.0000000000	        0.0000000000	        0.0000000000	      -38.7139452848	      -11.0811201292	        4.1059530098	       -9.6108897882	      -29.6943156746	        1.0191684282	       32.8079867240	        0.0000000000	        0.0000000000	        0.0000000000	        0.0000000000	        0.0000000000	        0.0000000000	        0.0000000000	        6.9896813264	       17.1219524264	        9.4255413227	        0.0000000000	        0.0000000000	        0.0000000000	        0.0000000000	        0.0000000000	        0.0000000000	        0.0000000000	        0.0000000000	
       37.6400000000	        0.0000000000	        0.0000000000	        0.0000000000	        0.0000000000	        0.0000000000	        0.0000000000	       27.0426132035	       23.1890614552	       13.9081977020	      -81.6482175048	        3.0231064924	      -10.1651247308	       17.5083283567	        0.0000000000	        0.0000000000	        0.0000000000	        0.0000000000	        0.0000000000	        0.0000000000	        0.0000000000	       -8.7940781711	      -18.7204035526	      -23.9190873079	        0.0000000000	        0.0000000000	        0.0000000000	        0.0000000000	        0.0000000000	        0.0000000000	        0.0000000000	        0.0000000000	
